<?xml version="1.0" encoding="utf-8"?>
<!-- Generator: Adobe Illustrator 17.0.0, SVG Export Plug-In . SVG Version: 6.00 Build 0)  -->
<!DOCTYPE svg PUBLIC "-//W3C//DTD SVG 1.1//EN" "http://www.w3.org/Graphics/SVG/1.1/DTD/svg11.dtd">
<svg version="1.1" id="图层_1" xmlns="http://www.w3.org/2000/svg" xmlns:xlink="http://www.w3.org/1999/xlink" x="0px" y="0px"
	 width="132px" height="132px" viewBox="0 0 132 132" enable-background="new 0 0 132 132" xml:space="preserve">
<g>
	<g>
		<path fill-rule="evenodd" clip-rule="evenodd" fill="#FFFFFF" d="M66,0C29.549,0,0,29.549,0,66s29.549,66,66,66s66-29.549,66-66
			S102.451,0,66,0z M66,120c-29.823,0-54-24.177-54-54c0-29.823,24.177-54,54-54c29.823,0,54,24.177,54,54
			C120,95.823,95.823,120,66,120z M66,16c-27.614,0-50,22.386-50,50s22.386,50,50,50s50-22.386,50-50S93.614,16,66,16z"/>
	</g>
</g>
</svg>
