<?xml version="1.0" encoding="utf-8"?>
<!-- Generator: Adobe Illustrator 18.1.1, SVG Export Plug-In . SVG Version: 6.00 Build 0)  -->
<svg version="1.1" id="图层_1" xmlns="http://www.w3.org/2000/svg" xmlns:xlink="http://www.w3.org/1999/xlink" x="0px" y="0px"
	 viewBox="34.5 21 134 28" enable-background="new 34.5 21 134 28" xml:space="preserve">
<g id="Page-1">
	<g id="订单-集合" transform="translate(-3782.000000, -327.000000)">
		<g id="订单详情" transform="translate(3504.000000, 249.000000)">
			<g id="火车" transform="translate(278.000000, 78.000000)">
				<g id="飞向" transform="translate(0.000000, 11.000000)">
					<ellipse id="Oval-2" fill="#FFFFFF" cx="71.6" cy="24" rx="2.4" ry="2.4"/>
					<ellipse id="Oval-2_1_" fill="#FFFFFF" cx="53" cy="24.6" rx="1.8" ry="1.8"/>
					<ellipse id="Oval-2_2_" fill="#FFFFFF" cx="35.7" cy="25.2" rx="1.2" ry="1.2"/>
					<ellipse id="Oval-2_3_" fill="#FFFFFF" cx="150" cy="24.6" rx="1.8" ry="1.8"/>
					<ellipse id="Oval-2_4_" fill="#FFFFFF" cx="167.3" cy="25.2" rx="1.2" ry="1.2"/>
					<ellipse id="Oval-2_5_" fill="#FFFFFF" cx="131.4" cy="24" rx="2.4" ry="2.4"/>
				</g>
				<g id="火车票" transform="translate(55.000000, 0.000000)">
					<path id="Shape" fill="#FFFFFF" d="M40.4,45l1.7-3c-2.6-1.5-4.4-4.2-4.4-7.4c0-4.7,3.9-8.5,8.6-8.5s8.6,3.8,8.6,8.5
						c0,3.2-1.8,5.9-4.4,7.4l1.7,3c3.6-2.1,6.1-5.9,6.1-10.3c0-5.4-3.6-10-8.6-11.4V21h-6.9v2.2c-5,1.5-8.6,6-8.6,11.4
						C34.3,39.1,36.8,42.9,40.4,45z M48.1,37.1c1,0,1.7-0.8,1.7-1.7v-1.7c0-0.9-0.8-1.7-1.7-1.7h-3.4c-1,0-1.7,0.8-1.7,1.7v1.7
						c0,0.9,0.8,1.7,1.7,1.7v8.5l-6.9,1.7V49H55v-1.7l-6.9-1.7V37.1L48.1,37.1z"/>
				</g>
			</g>
		</g>
	</g>
</g>
</svg>
