<?xml version="1.0" encoding="utf-8"?>
<!-- Generator: Adobe Illustrator 22.0.1, SVG Export Plug-In . SVG Version: 6.00 Build 0)  -->
<svg version="1.1" id="图层_1" xmlns="http://www.w3.org/2000/svg" xmlns:xlink="http://www.w3.org/1999/xlink" x="0px" y="0px"
	 viewBox="0 0 26 26" style="enable-background:new 0 0 26 26;" xml:space="preserve">
<style type="text/css">
	.st0{fill:#FFC579;}
</style>
<g id="_x36_.8">
	<g id="常用卡-已选优惠-copy" transform="translate(-30.000000, -829.000000)">
		<g id="营销" transform="translate(30.000000, 643.000000)">
			<g id="bt-选择优惠" transform="translate(0.000000, 180.000000)">
				<path id="icon_selected" class="st0" d="M21.8,11.6l-9.4,9.7l-4.9-4.7c-0.7-0.7-1.8-0.6-2.4,0s-0.6,1.8,0,2.4l6.1,5.9
					c0.7,0.7,1.8,0.6,2.4,0l11.1-11.5C25.6,15.2,26,17,26,19c0,7.2-5.8,13-13,13S0,26.2,0,19S5.8,6,13,6c4,0,7.5,1.8,9.9,4.5
					L21.8,11.6C21.9,11.6,21.9,11.6,21.8,11.6C21.9,11.6,21.9,11.6,21.8,11.6z"/>
			</g>
		</g>
	</g>
</g>
</svg>
